<mxfile host="app.diagrams.net" modified="2023-11-07T03:56:22.194Z" agent="Mozilla/5.0 (Windows NT 10.0; Win64; x64) AppleWebKit/537.36 (KHTML, like Gecko) Chrome/119.0.0.0 Safari/537.36 Edg/119.0.0.0" etag="wuStuLjsClnsD4cUwa8B" version="22.0.8" type="github">
  <diagram name="第 1 页" id="d6skBZ3tBabhwGlFrpQZ">
    <mxGraphModel dx="1092" dy="688" grid="1" gridSize="10" guides="1" tooltips="1" connect="1" arrows="1" fold="1" page="1" pageScale="1" pageWidth="827" pageHeight="1169" math="0" shadow="0">
      <root>
        <mxCell id="0" />
        <mxCell id="1" parent="0" />
        <mxCell id="_Cvo0A3EhG1lOwUWHFWV-3" value="" style="edgeStyle=orthogonalEdgeStyle;rounded=0;orthogonalLoop=1;jettySize=auto;html=1;fontStyle=1" edge="1" parent="1" source="_Cvo0A3EhG1lOwUWHFWV-1" target="_Cvo0A3EhG1lOwUWHFWV-2">
          <mxGeometry relative="1" as="geometry" />
        </mxCell>
        <mxCell id="_Cvo0A3EhG1lOwUWHFWV-1" value="&lt;font style=&quot;font-size: 18px;&quot;&gt;请求入口初始化&lt;/font&gt;" style="rounded=1;whiteSpace=wrap;html=1;fillColor=#dae8fc;strokeColor=#6c8ebf;fontStyle=1;" vertex="1" parent="1">
          <mxGeometry x="150" y="90" width="180" height="70" as="geometry" />
        </mxCell>
        <mxCell id="_Cvo0A3EhG1lOwUWHFWV-5" value="" style="edgeStyle=orthogonalEdgeStyle;rounded=0;orthogonalLoop=1;jettySize=auto;html=1;fontStyle=1" edge="1" parent="1" source="_Cvo0A3EhG1lOwUWHFWV-2" target="_Cvo0A3EhG1lOwUWHFWV-4">
          <mxGeometry relative="1" as="geometry" />
        </mxCell>
        <mxCell id="_Cvo0A3EhG1lOwUWHFWV-2" value="&lt;font style=&quot;font-size: 18px;&quot;&gt;查找映射器&lt;/font&gt;" style="rounded=1;whiteSpace=wrap;html=1;fillColor=#d5e8d4;strokeColor=#82b366;fontStyle=1;" vertex="1" parent="1">
          <mxGeometry x="150" y="218" width="180" height="70" as="geometry" />
        </mxCell>
        <mxCell id="_Cvo0A3EhG1lOwUWHFWV-7" value="" style="edgeStyle=orthogonalEdgeStyle;rounded=0;orthogonalLoop=1;jettySize=auto;html=1;fontStyle=1" edge="1" parent="1" source="_Cvo0A3EhG1lOwUWHFWV-4" target="_Cvo0A3EhG1lOwUWHFWV-6">
          <mxGeometry relative="1" as="geometry" />
        </mxCell>
        <mxCell id="_Cvo0A3EhG1lOwUWHFWV-4" value="&lt;font style=&quot;font-size: 18px;&quot;&gt;入参适配器&lt;/font&gt;" style="rounded=1;whiteSpace=wrap;html=1;fillColor=#ffe6cc;strokeColor=#d79b00;fontStyle=1;" vertex="1" parent="1">
          <mxGeometry x="150" y="345" width="180" height="70" as="geometry" />
        </mxCell>
        <mxCell id="_Cvo0A3EhG1lOwUWHFWV-9" value="" style="edgeStyle=orthogonalEdgeStyle;rounded=0;orthogonalLoop=1;jettySize=auto;html=1;fontStyle=1" edge="1" parent="1" source="_Cvo0A3EhG1lOwUWHFWV-6" target="_Cvo0A3EhG1lOwUWHFWV-8">
          <mxGeometry relative="1" as="geometry" />
        </mxCell>
        <mxCell id="_Cvo0A3EhG1lOwUWHFWV-6" value="&lt;font style=&quot;font-size: 18px;&quot;&gt;执行&lt;/font&gt;" style="rounded=1;whiteSpace=wrap;html=1;fillColor=#f8cecc;strokeColor=#b85450;fontStyle=1;" vertex="1" parent="1">
          <mxGeometry x="150" y="473" width="180" height="70" as="geometry" />
        </mxCell>
        <mxCell id="_Cvo0A3EhG1lOwUWHFWV-8" value="&lt;font style=&quot;font-size: 18px;&quot;&gt;视图解析器&lt;/font&gt;" style="rounded=1;whiteSpace=wrap;html=1;fillColor=#e1d5e7;strokeColor=#9673a6;fontStyle=1;" vertex="1" parent="1">
          <mxGeometry x="150" y="600" width="180" height="70" as="geometry" />
        </mxCell>
        <mxCell id="_Cvo0A3EhG1lOwUWHFWV-10" value="&lt;div style=&quot;text-align: left;&quot;&gt;&lt;span style=&quot;background-color: initial;&quot;&gt;在容器启动时，会初始化&lt;/span&gt;&lt;span style=&quot;background-color: initial;&quot;&gt;&lt;font color=&quot;#ff3333&quot;&gt;&lt;b&gt;DispatcherServlet&lt;/b&gt;&lt;/font&gt;对象，&lt;/span&gt;&lt;/div&gt;&lt;span style=&quot;background-color: initial;&quot;&gt;&lt;div style=&quot;&quot;&gt;&lt;div style=&quot;text-align: left;&quot;&gt;&lt;span style=&quot;background-color: initial;&quot;&gt;并把&lt;b&gt;&lt;font color=&quot;#ff3333&quot;&gt;映射器、适配器、视图解析器、异常处理器、文件处理器&lt;/font&gt;&lt;/b&gt;等等给初始化掉&lt;/span&gt;&lt;/div&gt;&lt;span style=&quot;background-color: initial;&quot;&gt;&lt;div style=&quot;text-align: left;&quot;&gt;&lt;br&gt;&lt;/div&gt;&lt;div style=&quot;text-align: left;&quot;&gt;&lt;span style=&quot;background-color: initial;&quot;&gt;更多初始实例，看&lt;b&gt;&lt;font color=&quot;#ff3333&quot;&gt;DispatcherServlet.properties&lt;/font&gt;&lt;/b&gt;就知道&lt;/span&gt;&lt;/div&gt;&lt;/span&gt;&lt;/div&gt;&lt;/span&gt;" style="rounded=1;whiteSpace=wrap;html=1;fillColor=#dae8fc;strokeColor=#6c8ebf;" vertex="1" parent="1">
          <mxGeometry x="370" y="75" width="300" height="100" as="geometry" />
        </mxCell>
        <mxCell id="_Cvo0A3EhG1lOwUWHFWV-12" style="edgeStyle=orthogonalEdgeStyle;rounded=0;orthogonalLoop=1;jettySize=auto;html=1;entryX=0;entryY=0.5;entryDx=0;entryDy=0;fontStyle=1" edge="1" parent="1" source="_Cvo0A3EhG1lOwUWHFWV-11" target="_Cvo0A3EhG1lOwUWHFWV-2">
          <mxGeometry relative="1" as="geometry" />
        </mxCell>
        <mxCell id="_Cvo0A3EhG1lOwUWHFWV-13" value="请求进入" style="edgeLabel;html=1;align=center;verticalAlign=middle;resizable=0;points=[];fontStyle=1" vertex="1" connectable="0" parent="_Cvo0A3EhG1lOwUWHFWV-12">
          <mxGeometry x="-0.1867" y="-2" relative="1" as="geometry">
            <mxPoint y="-1" as="offset" />
          </mxGeometry>
        </mxCell>
        <mxCell id="_Cvo0A3EhG1lOwUWHFWV-11" value="" style="ellipse;whiteSpace=wrap;html=1;aspect=fixed;fillColor=#f5f5f5;fontColor=#333333;strokeColor=#666666;" vertex="1" parent="1">
          <mxGeometry y="213" width="80" height="80" as="geometry" />
        </mxCell>
        <mxCell id="_Cvo0A3EhG1lOwUWHFWV-14" value="&lt;div style=&quot;text-align: left;&quot;&gt;&lt;div class=&quot;lake-content&quot;&gt;所有请求被&lt;b&gt;&lt;font color=&quot;#ff3333&quot;&gt;doService&lt;/font&gt;&lt;/b&gt;方法，进而调用&lt;font color=&quot;#ff3333&quot;&gt;&lt;b&gt;doDispatch&lt;/b&gt;&lt;/font&gt;方法&lt;br&gt;&lt;br&gt;&lt;div class=&quot;lake-content&quot;&gt;&lt;font color=&quot;#ff3333&quot; style=&quot;font-size: 14px;&quot;&gt;&lt;b&gt;HandlerMapping&lt;/b&gt;&lt;/font&gt;&lt;/div&gt;查找映射器，实际就是找到「最佳匹配」的路径，通过&lt;font style=&quot;font-weight: bold;&quot; color=&quot;#ff3333&quot;&gt;lookupHandlerMethod&lt;/font&gt;&lt;font style=&quot;&quot;&gt;得到&lt;/font&gt;&lt;b&gt;&lt;font color=&quot;#ff3333&quot;&gt;HandlerExecutionChain&lt;/font&gt;&lt;/b&gt;，里面有&lt;b&gt;映射器的Handler+拦截器List&lt;/b&gt;&lt;br&gt;&lt;/div&gt;&lt;/div&gt;" style="rounded=1;whiteSpace=wrap;html=1;fillColor=#d5e8d4;strokeColor=#82b366;" vertex="1" parent="1">
          <mxGeometry x="370" y="203" width="310" height="100" as="geometry" />
        </mxCell>
        <mxCell id="_Cvo0A3EhG1lOwUWHFWV-16" value="&lt;div style=&quot;text-align: left;&quot;&gt;&lt;div class=&quot;lake-content&quot;&gt;&lt;div class=&quot;lake-content&quot;&gt;&lt;b&gt;&lt;font size=&quot;1&quot; color=&quot;#ff3333&quot;&gt;&lt;/font&gt;&lt;/b&gt;&lt;div class=&quot;lake-content&quot;&gt;&lt;b&gt;&lt;font style=&quot;font-size: 14px;&quot; color=&quot;#ff3333&quot;&gt;HttpRequestHandlerAdapter&lt;/font&gt;&lt;/b&gt;&lt;/div&gt;&lt;/div&gt;&lt;div class=&quot;lake-content&quot;&gt;经常用到的&lt;b&gt;&lt;font color=&quot;#ff3333&quot;&gt;@ResponseBody&lt;/font&gt;&lt;/b&gt;和&lt;b&gt;&lt;font color=&quot;#ff3333&quot;&gt;@Requestbody&lt;/font&gt;&lt;/b&gt;的解析器&lt;/div&gt;&lt;div class=&quot;lake-content&quot;&gt;&lt;div class=&quot;lake-content&quot;&gt;初始化的时候加到参数解析器List中，针对&lt;font color=&quot;#ff3333&quot;&gt;HttpRequest&lt;/font&gt;进行&lt;b&gt;&lt;font color=&quot;#ff3333&quot;&gt;入参解析&lt;/font&gt;&lt;/b&gt;&lt;/div&gt;&lt;div class=&quot;lake-content&quot;&gt;&lt;br&gt;&lt;/div&gt;&lt;/div&gt;&lt;/div&gt;&lt;/div&gt;" style="rounded=1;whiteSpace=wrap;html=1;fillColor=#fff2cc;strokeColor=#d6b656;" vertex="1" parent="1">
          <mxGeometry x="370" y="330" width="310" height="100" as="geometry" />
        </mxCell>
        <mxCell id="_Cvo0A3EhG1lOwUWHFWV-17" value="&lt;div style=&quot;&quot;&gt;&lt;div class=&quot;lake-content&quot;&gt;&lt;div class=&quot;lake-content&quot;&gt;&lt;ol&gt;&lt;li&gt;&lt;span style=&quot;background-color: initial;&quot;&gt;先执行前置的拦截器逻辑&lt;/span&gt;&lt;/li&gt;&lt;li&gt;然后调用对象实例的&lt;b&gt;&lt;font color=&quot;#ff3333&quot;&gt;hanlde&lt;/font&gt;&lt;/b&gt;的&lt;div class=&quot;lake-content&quot;&gt;&lt;b&gt;&lt;font color=&quot;#ff3333&quot;&gt;invokeAndHandle&lt;/font&gt;&lt;/b&gt;方法，获取请求参数并调用，得到返回值&lt;/div&gt;&lt;/li&gt;&lt;/ol&gt;&lt;/div&gt;&lt;div class=&quot;lake-content&quot;&gt;&lt;div class=&quot;lake-content&quot;&gt;&lt;br&gt;&lt;/div&gt;&lt;/div&gt;&lt;/div&gt;&lt;/div&gt;" style="rounded=1;whiteSpace=wrap;html=1;fillColor=#f8cecc;strokeColor=#b85450;align=left;" vertex="1" parent="1">
          <mxGeometry x="370" y="458" width="310" height="100" as="geometry" />
        </mxCell>
        <mxCell id="_Cvo0A3EhG1lOwUWHFWV-18" value="&lt;div style=&quot;&quot;&gt;&lt;div class=&quot;lake-content&quot;&gt;&lt;div class=&quot;lake-content&quot;&gt;&lt;b style=&quot;border-color: var(--border-color);&quot;&gt;&lt;font style=&quot;border-color: var(--border-color); font-size: 14px;&quot; color=&quot;#ff3333&quot;&gt;HttpMessageConverter&lt;/font&gt;&lt;/b&gt;&lt;span style=&quot;background-color: initial;&quot;&gt;&lt;br&gt;&lt;/span&gt;&lt;/div&gt;&lt;div class=&quot;lake-content&quot;&gt;&lt;span style=&quot;background-color: initial;&quot;&gt;出参前会基于&lt;/span&gt;&lt;span style=&quot;background-color: initial;&quot;&gt;&lt;b&gt;&lt;font color=&quot;#ff3333&quot;&gt;HttpMessageConverter&lt;/font&gt;&lt;/b&gt;进行数据转换处理&lt;/span&gt;&lt;/div&gt;&lt;div class=&quot;lake-content&quot;&gt;&lt;div class=&quot;lake-content&quot;&gt;&lt;br&gt;&lt;/div&gt;&lt;/div&gt;&lt;/div&gt;&lt;/div&gt;" style="rounded=1;whiteSpace=wrap;html=1;fillColor=#e1d5e7;strokeColor=#9673a6;align=left;" vertex="1" parent="1">
          <mxGeometry x="370" y="585" width="310" height="100" as="geometry" />
        </mxCell>
      </root>
    </mxGraphModel>
  </diagram>
</mxfile>
